<svg width="1484" height="308" viewBox="0 0 1484 308" fill="none" xmlns="http://www.w3.org/2000/svg">
<path d="M28.4321 92.4126L117.678 40.8692C120.159 41.8811 122.836 42.436 125.643 42.436C137.329 42.436 146.861 32.9042 146.861 21.218C146.861 9.53179 137.329 0 125.643 0C113.957 0 104.491 9.4665 104.425 21.1201L12.2412 74.361C4.70061 78.7352 0 86.8633 0 95.6116V208.948C0 217.664 4.7006 225.825 12.2738 230.199L116.079 290.132C117.515 290.948 119.147 291.405 120.779 291.405C122.412 291.405 124.044 290.981 125.48 290.132C128.418 288.434 130.181 285.366 130.181 281.971V278.935C130.181 273.974 127.504 269.371 123.228 266.89L28.4321 212.148C25.5269 210.45 23.6989 207.316 23.6989 203.954V100.606C23.6989 97.2438 25.5269 94.0774 28.4321 92.4126ZM112.912 16.2563C114.904 11.1313 119.865 7.54056 125.676 7.54056C126.394 7.54056 127.08 7.60584 127.765 7.70377C128.614 7.83434 129.43 8.0302 130.181 8.32399C135.534 10.1846 139.353 15.277 139.353 21.2507C139.353 27.8119 134.718 33.3286 128.549 34.6343C127.634 34.8302 126.655 34.9281 125.676 34.9281C118.103 34.9281 111.966 28.7912 111.966 21.218C111.966 19.4553 112.325 17.7905 112.912 16.2563Z" fill="#15141D"/>
<path d="M275.54 80.8571L171.669 20.8917C170.2 20.043 168.568 19.6187 166.903 19.6187C165.239 19.6187 163.607 20.0757 162.138 20.8917C159.167 22.6218 157.372 25.6903 157.372 29.1504V33.3614C157.372 37.4744 159.591 41.2937 163.15 43.3502L259.349 98.8761C262.156 100.476 263.886 103.479 263.886 106.71V210.516C263.886 213.747 262.156 216.75 259.349 218.35L172.388 267.314C169.482 265.813 166.185 264.964 162.725 264.964C151.039 264.964 141.507 274.496 141.507 286.182C141.507 297.868 151.039 307.4 162.725 307.4C173.334 307.4 182.148 299.599 183.715 289.414L275.572 236.369C283.015 232.06 287.618 224.095 287.618 215.51V101.716C287.585 93.1309 282.982 85.1334 275.54 80.8571ZM172.192 296.073C170.592 297.607 168.666 298.75 166.479 299.37C165.271 299.729 163.998 299.892 162.693 299.892C162.562 299.892 162.399 299.892 162.268 299.892C154.891 299.664 148.982 293.625 148.982 286.215C148.982 278.642 155.119 272.505 162.693 272.505C163.411 272.505 164.129 272.57 164.814 272.668C171.376 273.68 176.403 279.36 176.403 286.215C176.403 290.099 174.803 293.592 172.192 296.073Z" fill="#15141D"/>
<path d="M205.619 170.364L44.8522 212.996C42.0449 213.747 39.3681 208.491 40.935 205.292L44.6237 197.686C47.5615 191.615 52.0337 187.567 57.3218 186.163L216.914 143.858C219.721 143.107 222.398 148.363 220.831 151.562L216.522 160.506C213.976 165.696 210.157 169.189 205.619 170.364Z" fill="#15141D"/>
<path d="M206.794 208.981L107.266 235.357C105.536 235.814 103.316 230.46 104.001 227.457L105.666 220.406C106.972 214.759 109.485 211.233 112.782 210.385L211.593 184.205C213.323 183.748 215.543 189.101 214.857 192.105L212.931 200.396C211.756 205.227 209.602 208.23 206.794 208.981Z" fill="#15141D"/>
<path d="M181.038 107.526L81.5092 133.902C79.7792 134.359 77.5594 129.005 78.2449 126.002L79.9097 118.951C81.2154 113.304 83.729 109.778 87.0259 108.93L185.837 82.7499C187.567 82.2929 189.786 87.6463 189.101 90.6495L187.175 98.9409C185.967 103.772 183.845 106.775 181.038 107.526Z" fill="#15141D"/>
<path d="M234.54 126.981L73.8058 169.581C70.9985 170.331 68.3217 165.076 69.8886 161.877L73.5773 154.271C76.5152 148.199 80.9873 144.152 86.2754 142.748L245.868 100.443C248.675 99.6918 251.352 104.947 249.785 108.146L245.476 117.091C242.93 122.313 239.11 125.774 234.54 126.981Z" fill="#15141D"/>
<path d="M402.984 72.6506V236.888H389.109V72.6506H402.984ZM479.462 148.227V160.184H398.359V148.227H479.462ZM490.855 72.6506V84.6074H398.359V72.6506H490.855ZM591.586 208.688V114.838H605.122V236.888H592.15L591.586 208.688ZM594.067 186.128L601.061 185.902C601.061 193.572 600.158 200.641 598.354 207.108C596.549 213.576 593.729 219.216 589.894 224.028C586.058 228.841 581.095 232.564 575.004 235.196C568.913 237.828 561.581 239.144 553.008 239.144C547.067 239.144 541.615 238.316 536.652 236.662C531.764 234.932 527.553 232.225 524.018 228.54C520.484 224.856 517.739 220.08 515.784 214.215C513.904 208.349 512.964 201.243 512.964 192.896V114.838H526.387V193.121C526.387 199.664 527.102 205.116 528.53 209.477C530.034 213.839 532.065 217.336 534.622 219.968C537.254 222.6 540.262 224.48 543.646 225.608C547.03 226.736 550.677 227.3 554.587 227.3C564.514 227.3 572.334 225.382 578.05 221.547C583.84 217.712 587.938 212.673 590.345 206.432C592.826 200.115 594.067 193.347 594.067 186.128ZM686.563 114.838V125.892H625.426V114.838H686.563ZM647.873 83.4794H661.296V207.221C661.296 212.861 662.048 217.11 663.552 219.968C665.056 222.825 667.011 224.743 669.418 225.72C671.824 226.698 674.419 227.187 677.201 227.187C679.231 227.187 681.187 227.074 683.067 226.848C684.947 226.548 686.639 226.247 688.143 225.946L688.707 237.339C687.052 237.865 684.909 238.279 682.277 238.58C679.645 238.956 677.013 239.144 674.381 239.144C669.192 239.144 664.605 238.204 660.619 236.324C656.634 234.368 653.513 231.06 651.257 226.397C649.001 221.66 647.873 215.23 647.873 207.108V83.4794ZM793.047 208.688V114.838H806.583V236.888H793.611L793.047 208.688ZM795.528 186.128L802.522 185.902C802.522 193.572 801.62 200.641 799.815 207.108C798.01 213.576 795.19 219.216 791.355 224.028C787.52 228.841 782.556 232.564 776.465 235.196C770.374 237.828 763.042 239.144 754.469 239.144C748.528 239.144 743.076 238.316 738.113 236.662C733.225 234.932 729.014 232.225 725.48 228.54C721.945 224.856 719.2 220.08 717.245 214.215C715.365 208.349 714.425 201.243 714.425 192.896V114.838H727.848V193.121C727.848 199.664 728.563 205.116 729.992 209.477C731.496 213.839 733.526 217.336 736.083 219.968C738.715 222.6 741.723 224.48 745.107 225.608C748.491 226.736 752.138 227.3 756.048 227.3C765.975 227.3 773.796 225.382 779.511 221.547C785.301 217.712 789.4 212.673 791.806 206.432C794.288 200.115 795.528 193.347 795.528 186.128ZM855.313 135.029V236.888H841.889V114.838H854.974L855.313 135.029ZM898.515 113.935L898.177 126.343C896.673 126.118 895.206 125.93 893.777 125.779C892.349 125.629 890.807 125.554 889.153 125.554C883.287 125.554 878.136 126.644 873.699 128.825C869.337 130.931 865.653 133.901 862.645 137.736C859.637 141.496 857.343 145.933 855.764 151.047C854.185 156.085 853.282 161.5 853.057 167.29L848.093 169.208C848.093 161.236 848.921 153.829 850.575 146.986C852.229 140.143 854.749 134.164 858.133 129.051C861.592 123.862 865.916 119.839 871.105 116.981C876.369 114.048 882.535 112.582 889.604 112.582C891.333 112.582 893.025 112.732 894.68 113.033C896.409 113.259 897.688 113.559 898.515 113.935ZM964.616 239.144C956.645 239.144 949.313 237.677 942.62 234.744C936.002 231.812 930.212 227.676 925.249 222.336C920.361 216.997 916.563 210.68 913.856 203.386C911.224 196.016 909.908 187.97 909.908 179.247V174.396C909.908 164.996 911.299 156.499 914.081 148.904C916.864 141.308 920.699 134.804 925.587 129.389C930.475 123.975 936.04 119.839 942.282 116.981C948.598 114.048 955.216 112.582 962.134 112.582C969.88 112.582 976.761 113.973 982.777 116.755C988.793 119.463 993.831 123.335 997.892 128.374C1002.03 133.337 1005.15 139.24 1007.25 146.084C1009.36 152.852 1010.41 160.334 1010.41 168.531V176.765H918.029V165.26H996.99V163.68C996.839 156.837 995.448 150.445 992.816 144.504C990.259 138.488 986.424 133.6 981.31 129.84C976.197 126.08 969.805 124.2 962.134 124.2C956.419 124.2 951.155 125.403 946.342 127.81C941.605 130.216 937.506 133.676 934.047 138.188C930.663 142.624 928.031 147.926 926.151 154.092C924.346 160.184 923.444 166.952 923.444 174.396V179.247C923.444 186.015 924.421 192.332 926.377 198.197C928.407 203.988 931.265 209.101 934.949 213.538C938.709 217.975 943.146 221.434 948.26 223.916C953.374 226.397 959.014 227.638 965.18 227.638C972.399 227.638 978.791 226.322 984.356 223.69C989.921 220.983 994.922 216.734 999.358 210.944L1007.82 217.486C1005.19 221.396 1001.88 225.006 997.892 228.315C993.982 231.624 989.282 234.256 983.792 236.211C978.302 238.166 971.91 239.144 964.616 239.144ZM1070.87 208.349L1100.31 114.838H1109.79L1104.15 139.992L1073.36 236.888H1063.88L1070.87 208.349ZM1040.3 114.838L1066.14 208.913L1071.66 236.888H1061.85L1026.43 114.838H1040.3ZM1146.45 208.575L1171.6 114.838H1185.48L1150.06 236.888H1140.36L1146.45 208.575ZM1111.71 114.838L1140.7 207.56L1148.03 236.888H1138.55L1107.08 139.88L1101.78 114.838H1111.71ZM1226.43 114.838V236.888H1213V114.838H1226.43ZM1210.63 79.5314C1210.63 76.9746 1211.42 74.8314 1213 73.1018C1214.66 71.297 1216.91 70.3946 1219.77 70.3946C1222.63 70.3946 1224.88 71.297 1226.54 73.1018C1228.27 74.8314 1229.13 76.9746 1229.13 79.5314C1229.13 82.013 1228.27 84.1562 1226.54 85.961C1224.88 87.6906 1222.63 88.5554 1219.77 88.5554C1216.91 88.5554 1214.66 87.6906 1213 85.961C1211.42 84.1562 1210.63 82.013 1210.63 79.5314ZM1336.41 205.755C1336.41 202.446 1335.58 199.175 1333.92 195.941C1332.27 192.708 1329.07 189.737 1324.34 187.03C1319.67 184.323 1312.79 182.029 1303.69 180.149C1296.93 178.645 1290.87 176.953 1285.53 175.073C1280.27 173.193 1275.83 170.937 1272.22 168.305C1268.61 165.673 1265.87 162.515 1263.99 158.83C1262.11 155.145 1261.17 150.784 1261.17 145.745C1261.17 141.233 1262.15 136.984 1264.1 132.999C1266.13 128.938 1268.99 125.403 1272.67 122.395C1276.43 119.312 1280.95 116.906 1286.21 115.176C1291.55 113.447 1297.53 112.582 1304.14 112.582C1313.54 112.582 1321.59 114.199 1328.28 117.432C1335.05 120.591 1340.2 124.915 1343.74 130.404C1347.35 135.894 1349.15 142.098 1349.15 149.016H1335.73C1335.73 144.805 1334.49 140.82 1332.01 137.06C1329.6 133.3 1326.03 130.216 1321.29 127.81C1316.63 125.403 1310.91 124.2 1304.14 124.2C1297.15 124.2 1291.47 125.253 1287.11 127.359C1282.75 129.464 1279.55 132.134 1277.52 135.368C1275.57 138.601 1274.59 141.948 1274.59 145.407C1274.59 148.114 1275 150.596 1275.83 152.852C1276.73 155.032 1278.31 157.063 1280.57 158.943C1282.9 160.823 1286.21 162.59 1290.5 164.244C1294.78 165.899 1300.35 167.516 1307.19 169.095C1317.04 171.276 1325.09 173.945 1331.33 177.104C1337.65 180.187 1342.31 184.022 1345.32 188.609C1348.32 193.121 1349.83 198.611 1349.83 205.078C1349.83 210.116 1348.78 214.741 1346.67 218.952C1344.56 223.088 1341.52 226.66 1337.53 229.668C1333.62 232.676 1328.89 235.008 1323.32 236.662C1317.83 238.316 1311.66 239.144 1304.82 239.144C1294.52 239.144 1285.8 237.452 1278.65 234.068C1271.58 230.608 1266.21 226.096 1262.52 220.532C1258.91 214.892 1257.11 208.913 1257.11 202.596H1270.53C1270.98 208.913 1272.97 213.914 1276.51 217.599C1280.04 221.208 1284.37 223.765 1289.48 225.269C1294.67 226.773 1299.78 227.525 1304.82 227.525C1311.74 227.525 1317.53 226.51 1322.19 224.48C1326.85 222.449 1330.39 219.78 1332.8 216.471C1335.2 213.162 1336.41 209.59 1336.41 205.755ZM1427.55 239.144C1419.58 239.144 1412.24 237.677 1405.55 234.744C1398.93 231.812 1393.14 227.676 1388.18 222.336C1383.29 216.997 1379.5 210.68 1376.79 203.386C1374.16 196.016 1372.84 187.97 1372.84 179.247V174.396C1372.84 164.996 1374.23 156.499 1377.01 148.904C1379.8 141.308 1383.63 134.804 1388.52 129.389C1393.41 123.975 1398.97 119.839 1405.21 116.981C1411.53 114.048 1418.15 112.582 1425.07 112.582C1432.81 112.582 1439.69 113.973 1445.71 116.755C1451.72 119.463 1456.76 123.335 1460.82 128.374C1464.96 133.337 1468.08 139.24 1470.19 146.084C1472.29 152.852 1473.34 160.334 1473.34 168.531V176.765H1380.96V165.26H1459.92V163.68C1459.77 156.837 1458.38 150.445 1455.75 144.504C1453.19 138.488 1449.36 133.6 1444.24 129.84C1439.13 126.08 1432.74 124.2 1425.07 124.2C1419.35 124.2 1414.09 125.403 1409.27 127.81C1404.54 130.216 1400.44 133.676 1396.98 138.188C1393.6 142.624 1390.96 147.926 1389.08 154.092C1387.28 160.184 1386.38 166.952 1386.38 174.396V179.247C1386.38 186.015 1387.35 192.332 1389.31 198.197C1391.34 203.988 1394.2 209.101 1397.88 213.538C1401.64 217.975 1406.08 221.434 1411.19 223.916C1416.31 226.397 1421.95 227.638 1428.11 227.638C1435.33 227.638 1441.72 226.322 1447.29 223.69C1452.85 220.983 1457.85 216.734 1462.29 210.944L1470.75 217.486C1468.12 221.396 1464.81 225.006 1460.82 228.315C1456.91 231.624 1452.21 234.256 1446.72 236.211C1441.23 238.166 1434.84 239.144 1427.55 239.144Z" fill="#15141D"/>
</svg>
