<svg width="421" height="195" viewBox="0 0 421 195" fill="none" xmlns="http://www.w3.org/2000/svg">
<rect width="210.614" height="194.413" fill="black"/>
<path d="M77.4889 102.309H59.0061V65.3428H77.4889V102.309ZM95.9718 102.309V65.3428H114.455V102.309H95.9718ZM132.937 102.309V65.3428H151.42V102.309H132.937ZM95.9718 139.274H77.4889V102.309H95.9718V139.274ZM132.937 139.274H114.455V102.309H132.937V139.274Z" fill="#FF4016"/>
<rect x="210.344" width="210.614" height="194.413" fill="#FF4016"/>
<path d="M267.25 94.564H262.188V69.2498H282.439V74.3126H267.25V79.3754H277.376V84.4383H267.25V94.564ZM292.565 94.564V89.5011H287.502V74.3126H292.565V89.5011H297.627V74.3126H302.69V94.564H292.565ZM312.816 89.5011H307.753V69.2498H312.816V74.3126H317.879V79.3754H312.816V89.5011ZM312.816 94.564V89.5011H317.879V94.564H312.816ZM328.004 94.564V89.5011H322.942V74.3126H328.004V89.5011H333.067V74.3126H338.13V94.564H328.004ZM348.256 94.564H343.193V74.3126H353.319V79.3754H348.256V94.564ZM363.444 89.5011H358.381V79.3754H363.444V74.3126H368.507V79.3754H373.57V84.4383H363.444V89.5011ZM363.444 94.564V89.5011H373.57V94.564H363.444Z" fill="#F9F9F9"/>
<path d="M302.892 119.271H297.829V104.082H302.892V119.271ZM307.955 119.271V104.082H313.018V119.271H307.955ZM318.08 119.271V104.082H323.143V119.271H318.08ZM307.955 129.396H302.892V119.271H307.955V129.396ZM318.08 129.396H313.018V119.271H318.08V129.396ZM328.206 104.082V99.0194H333.269V104.082H328.206ZM333.269 129.396H328.206V109.145H333.269V129.396ZM343.395 114.208V109.145H353.52V114.208H348.458V119.271H338.332V114.208H343.395ZM353.52 124.334H348.458V119.271H353.52V124.334ZM348.458 124.334V129.396H338.332V124.334H348.458ZM363.646 124.334H358.583V114.208H363.646V109.145H368.709V114.208H373.772V119.271H363.646V124.334ZM363.646 129.396V124.334H373.772V129.396H363.646Z" fill="#F9F9F9"/>
</svg>
